<svg width="488" height="445" viewBox="0 0 488 445" fill="none" xmlns="http://www.w3.org/2000/svg">
<path d="M314.073 98.4841L315.536 42.1067L350.784 60.6638L375.443 45.2836L391.68 70.7492L430.055 71.4552L406.708 121.68L314.073 98.4841Z" fill="#FCBE26"/>
<path d="M321.535 52.4442L351.035 67.9253L373.475 53.957L388.199 77.0526L420.271 77.6577L403.176 114.369L320.476 93.6431L321.535 52.4442ZM309.483 31.8196L308.979 52.0912L307.869 93.2396L307.617 103.325L317.4 105.796L400.1 126.521L410.186 129.043L414.573 119.613L431.668 82.9021L439.837 65.3535L420.473 65.0005L395.158 64.5467L384.064 47.1494L377.358 36.6606L366.768 43.2665L350.48 53.4528L327.385 41.2999L309.483 31.8196Z" fill="black"/>
<path d="M420.269 77.6074L403.174 114.268L391.525 111.343L407.612 77.3552L420.269 77.6074Z" fill="#EE7627"/>
<path d="M57.5508 72.8673L97.3881 72.5647L111.911 47.4016L138.284 62.2272L172.474 44.729L175.499 99.997L82.8147 123.244L57.5508 72.8673Z" fill="#FCBE26"/>
<path d="M166.676 54.7641L168.895 95.1562L86.1944 115.882L67.7381 79.07L101.02 78.8682L114.232 55.9744L138.084 69.388L166.676 54.7641ZM178.224 34.7446L160.978 43.5694L138.437 55.0667L120.485 44.9813L109.542 38.8292L103.34 49.6206L93.7584 66.2615L67.6877 66.4128L47.416 66.5641L56.4929 84.6674L74.9491 121.479L79.4876 130.505L89.2704 128.035L171.971 107.309L182.056 104.788L181.501 94.3998L179.283 54.0077L178.224 34.7446Z" fill="black"/>
<path d="M166.677 54.7639L168.947 95.1559L157.248 98.0807L155.382 60.5126L166.677 54.7639Z" fill="#EE7627"/>
<path d="M431.017 357.174L244.185 352.938H244.034H243.883L57.0506 357.174C57.0506 357.174 50.1926 370.941 49.3857 379.009C49.3857 379.009 61.4378 396.104 112.218 394.188C112.218 394.188 109.394 411.283 109.394 420.763C109.394 420.763 126.942 426.007 166.326 425.503L161.434 444.01H243.883H244.135H326.583L321.691 425.503C361.075 425.957 378.623 420.763 378.623 420.763C378.623 411.283 375.8 394.188 375.8 394.188C426.58 396.104 438.632 379.009 438.632 379.009C437.875 370.941 431.017 357.174 431.017 357.174Z" fill="#070B08"/>
<path d="M358.904 383.295C298.341 383.295 285.634 365.746 285.634 351.022C285.634 342.953 290.525 331.053 297.787 321.421C307.116 309.016 318.815 302.158 330.716 302.158C334.851 302.158 338.986 302.965 343.07 304.578C344.482 305.133 345.894 305.839 347.256 306.595C361.627 295.048 390.925 293.787 399.901 293.686L403.23 240.183L404.843 240.284C403.734 235.342 403.078 229.745 402.877 223.492C400.557 224.097 399.095 224.349 398.994 224.349L394.253 225.206L392.035 220.92C381.395 200.648 379.478 183.049 386.336 168.627C396.573 147.145 422.493 141.699 423.602 141.498L427.687 140.691L430.158 144.019C447.101 166.862 447.454 183.503 442.563 195.001C449.774 196.312 456.783 197.976 463.54 199.942L468.079 201.253L468.23 205.994C468.28 207.506 469.238 238.317 454.463 255.21C466.566 261.715 475.189 267.918 475.643 268.271L479.828 271.297L477.861 276.087C477.408 277.247 466.062 304.377 444.227 319C439.436 322.228 434.494 324.194 429.552 324.9C433.183 329.893 436.511 334.784 439.487 339.474L442.916 344.87L437.621 348.45C436.713 349.055 414.676 363.729 389.866 363.729C383.916 363.729 378.268 362.872 372.973 361.208C373.881 370.033 373.78 376.386 373.78 376.79L373.679 383.093L367.376 383.244C364.401 383.244 361.627 383.295 358.904 383.295Z" fill="#00582F"/>
<path d="M424.815 147.953C443.321 172.863 440.699 189.303 431.824 199.943C440.245 201.103 450.583 203.019 461.626 206.246C461.626 206.246 463.089 245.478 442.515 256.572C458.853 264.187 471.762 273.566 471.762 273.566C471.762 273.566 460.971 299.839 440.548 313.504C434.9 317.286 429.706 318.648 425.168 318.648C421.184 318.648 417.654 317.589 414.729 316.227C420.629 323.691 427.588 333.07 433.892 343.004C433.892 343.004 412.863 357.174 389.818 357.174C381.397 357.174 372.724 355.308 364.706 350.165C367.378 364.335 367.177 376.639 367.177 376.639C364.302 376.689 361.579 376.74 358.907 376.74C308.026 376.74 292.192 364.083 292.192 351.022C292.192 338.97 308.227 308.714 330.667 308.714C333.844 308.714 337.173 309.319 340.602 310.68C343.325 311.79 345.796 313.303 348.014 315.168C358.554 300.444 398.845 300.242 401.265 300.242C401.316 300.242 401.366 300.242 401.366 300.242C401.366 300.242 403.03 302.108 405.703 305.285L409.334 247.042C410.846 247.092 412.41 247.294 414.023 247.495C409.737 238.066 409.081 224.904 409.434 214.567C402.879 216.987 397.786 217.945 397.786 217.945C367.177 159.5 424.815 147.953 424.815 147.953ZM430.412 133.48L422.243 135.094C421.033 135.346 391.987 141.397 380.338 165.854C372.522 182.192 374.489 201.758 386.137 223.996L390.625 232.519L396.777 231.409C396.828 232.115 396.929 232.821 397.029 233.527L396.223 246.235L393.701 287.282C369.547 288.291 355.175 293.838 346.855 299.082C346.401 298.881 345.947 298.679 345.443 298.477C340.602 296.561 335.66 295.603 330.667 295.603C316.649 295.603 303.134 303.368 292.494 317.488C284.325 328.38 279.03 341.542 279.03 351.022C279.03 368.722 292.898 389.851 358.856 389.851C361.63 389.851 364.454 389.8 367.429 389.75L379.985 389.447L380.187 376.891C380.187 376.639 380.237 373.916 380.036 369.579C383.162 370.033 386.389 370.285 389.718 370.285C416.494 370.285 440.144 354.552 441.103 353.896L451.692 346.736L444.834 335.944C443.321 333.524 441.708 331.103 439.993 328.632C442.615 327.523 445.187 326.111 447.709 324.447C471.157 308.764 483.26 279.819 483.764 278.609L487.697 269.078L479.377 263.027C479.024 262.775 472.972 258.438 463.996 253.194C475.292 234.737 474.788 209.473 474.637 205.843L474.284 196.413L465.207 193.74C460.517 192.379 455.726 191.168 450.835 190.059C454.768 170.796 443.725 151.533 435.253 140.187L430.412 133.48Z" fill="black"/>
<path d="M424.816 147.953C424.816 147.953 367.128 159.501 397.787 217.895C397.787 217.895 467.578 205.44 424.816 147.953Z" fill="#00582F"/>
<path d="M410.845 198.178C410.845 198.178 434.092 198.178 461.625 206.247C461.625 206.247 463.541 257.581 432.176 259.447C400.81 261.313 410.845 198.178 410.845 198.178Z" fill="#00913C"/>
<path d="M405.452 309.319C405.452 309.319 420.076 327.17 440.499 313.504C460.922 299.839 471.713 273.566 471.713 273.566C471.713 273.566 436.969 248.252 409.285 246.991L405.452 309.319Z" fill="#00582F"/>
<path d="M401.366 300.242C401.366 300.242 419.419 320.311 433.892 343.004C433.892 343.004 382.557 377.597 352.351 338.667C322.095 299.737 401.366 300.242 401.366 300.242Z" fill="#00913C"/>
<path d="M367.178 376.639C367.178 376.639 368.136 321.573 340.603 310.681C313.07 299.789 292.193 337.256 292.193 351.023C292.193 364.789 309.742 378.051 367.178 376.639Z" fill="#00582F"/>
<path d="M129.16 383.295C126.437 383.295 123.664 383.244 120.739 383.194L114.436 383.043L114.335 376.739C114.335 376.386 114.234 370.033 115.142 361.157C109.847 362.822 104.199 363.679 98.2485 363.679C73.4888 363.679 51.4523 349.005 50.4941 348.399L45.1993 344.819L48.6283 339.423C51.6035 334.734 54.9317 329.842 58.5625 324.85C53.5702 324.144 48.6788 322.127 43.8378 318.9C22.0029 304.276 10.7073 277.146 10.203 275.986L8.23633 271.196L12.4218 268.17C12.8756 267.868 21.4986 261.615 33.6011 255.11C18.826 238.216 19.7841 207.406 19.8345 205.893L19.9858 201.153L24.5242 199.842C31.2815 197.875 38.2908 196.211 45.5019 194.9C40.6105 183.402 40.9634 166.761 57.9069 143.918L60.3778 140.59L64.4624 141.397C65.5718 141.598 91.4913 147.044 101.728 168.526C108.586 182.898 106.67 200.497 96.0297 220.819L93.8109 225.055L89.0708 224.198C88.9699 224.198 87.5075 223.895 85.1879 223.29C84.9862 229.543 84.3307 235.14 83.2213 240.082L84.8349 240.032L88.1631 293.535C97.4417 293.636 126.488 294.947 140.809 306.444C142.17 305.637 143.582 304.982 144.994 304.427C149.079 302.813 153.214 302.007 157.349 302.007C169.25 302.007 180.949 308.865 190.278 321.27C197.539 330.952 202.431 342.852 202.431 350.87C202.431 365.746 189.673 383.295 129.16 383.295Z" fill="#00582F"/>
<path d="M63.2014 147.953C63.2014 147.953 120.89 159.5 90.2303 217.895C90.2303 217.895 85.1372 216.987 78.5817 214.516C78.9346 224.904 78.2791 238.066 73.9928 247.445C75.556 247.243 77.1193 247.042 78.6825 246.991L82.3133 305.234C84.9859 302.057 86.65 300.192 86.65 300.192C86.65 300.192 86.7004 300.192 86.7508 300.192C89.1713 300.192 129.462 300.393 140.002 315.118C142.221 313.252 144.641 311.739 147.414 310.63C150.844 309.268 154.172 308.663 157.349 308.663C179.839 308.663 195.824 338.919 195.824 350.972C195.824 364.032 179.94 376.689 129.109 376.689C126.437 376.689 123.714 376.639 120.839 376.588C120.839 376.588 120.638 364.234 123.31 350.114C115.293 355.258 106.619 357.124 98.1978 357.124C75.1526 357.124 54.1246 342.954 54.1246 342.954C60.4279 333.07 67.4373 323.64 73.2868 316.177C70.3621 317.589 66.8322 318.597 62.8484 318.597C58.2596 318.597 53.0656 317.236 47.4682 313.454C27.0453 299.788 16.2539 273.516 16.2539 273.516C16.2539 273.516 29.1632 264.136 45.5016 256.522C24.9274 245.428 26.3897 206.196 26.3897 206.196C37.4332 202.968 47.7203 201.052 56.1921 199.892C47.3169 189.303 44.6947 172.863 63.2014 147.953ZM57.6545 133.48L52.7126 140.136C44.2913 151.482 33.2478 170.796 37.1307 190.009C32.2393 191.068 27.4487 192.278 22.759 193.69L13.6821 196.362L13.3291 205.792C13.1779 209.423 12.724 234.687 23.9692 253.143C14.9932 258.388 8.99242 262.724 8.58901 262.976L0.268555 269.028L4.20186 278.558C4.70613 279.769 16.7582 308.714 40.2572 324.397C42.7785 326.111 45.3503 327.473 47.9725 328.582C46.3084 331.053 44.6947 333.524 43.1315 335.894L36.2734 346.685L46.8631 353.846C47.8716 354.501 71.5219 370.235 98.2482 370.235C101.576 370.235 104.804 369.983 107.93 369.529C107.728 373.815 107.779 376.588 107.779 376.841L107.981 389.397L120.537 389.699C123.512 389.75 126.336 389.8 129.109 389.8C195.118 389.8 208.935 368.671 208.935 350.972C208.935 341.441 203.641 328.279 195.471 317.438C184.882 303.318 171.317 295.552 157.298 295.552C152.356 295.552 147.364 296.51 142.523 298.427C142.069 298.628 141.565 298.83 141.111 299.032C132.791 293.787 118.419 288.19 94.2644 287.232L91.7431 246.184L91.0371 233.527C91.138 232.821 91.1884 232.115 91.2893 231.409L97.4414 232.519L101.929 223.996C113.578 201.758 115.545 182.192 107.728 165.854C96.0798 141.447 67.0843 135.346 65.8236 135.094L57.6545 133.48Z" fill="black"/>
<path d="M63.2012 147.953C63.2012 147.953 120.89 159.501 90.2301 217.895C90.2301 217.895 20.4896 205.44 63.2012 147.953Z" fill="#00582F"/>
<path d="M77.2197 198.178C77.2197 198.178 53.9728 198.178 26.4397 206.247C26.4397 206.247 24.5235 257.581 55.8891 259.447C87.2546 261.313 77.2197 198.178 77.2197 198.178Z" fill="#00913C"/>
<path d="M82.5638 309.319C82.5638 309.319 67.94 327.17 47.517 313.504C27.0941 299.839 16.3027 273.566 16.3027 273.566C16.3027 273.566 51.0469 248.252 78.7313 246.991L82.5638 309.319Z" fill="#00582F"/>
<path d="M86.7022 300.242C86.7022 300.242 68.6493 320.311 54.1768 343.004C54.1768 343.004 105.511 377.597 135.717 338.667C165.923 299.737 86.7022 300.242 86.7022 300.242Z" fill="#00913C"/>
<path d="M120.839 376.639C120.839 376.639 119.881 321.573 147.414 310.681C174.947 299.789 195.824 337.256 195.824 351.023C195.824 364.789 178.275 378.051 120.839 376.639Z" fill="#00582F"/>
<path d="M359.307 173.066C359.105 173.066 358.954 173.116 358.753 173.116C358.753 166.309 358.753 161.922 358.753 161.922H358.601H323.857H295.668L275.245 177.806L262.487 161.922H149.128H129.411V173.116C129.209 173.116 129.058 173.116 128.856 173.116C128.805 173.116 128.755 173.116 128.654 173.116C128.604 173.116 128.553 173.116 128.452 173.116C90.0271 173.167 58.8633 204.381 58.9641 242.857C59.0145 281.282 90.2288 312.446 128.705 312.345C128.755 312.345 128.805 312.345 128.906 312.345C128.957 312.345 129.007 312.345 129.108 312.345C130.923 312.345 132.739 312.244 134.504 312.093C134.352 312.093 134.252 312.043 134.1 312.043C142.118 311.438 149.783 309.471 156.792 306.345C158.255 307.454 159.818 308.513 161.381 309.521C169.349 314.514 179.333 318.8 191.537 321.271C192.142 321.372 192.696 321.573 193.302 321.674L182.964 356.62H202.681H244.031H270.203L270.304 356.973H305.249L294.912 322.027C307.922 319.657 318.461 315.068 326.832 309.874C328.547 308.815 330.16 307.656 331.724 306.445C340.296 310.177 349.777 312.295 359.711 312.295C398.136 312.244 429.3 281.03 429.199 242.554C428.997 204.129 397.783 173.016 359.307 173.066ZM128.553 211.038C128.856 211.038 129.108 211.088 129.411 211.088V245.933C129.31 247.799 129.259 249.665 129.259 251.581C129.259 251.682 129.259 251.783 129.259 251.883C129.259 254.808 129.461 257.733 129.864 260.557C130.066 261.969 130.268 263.431 130.57 264.793C131.176 267.919 132.083 271.046 133.092 274.021C131.629 274.223 130.167 274.374 128.654 274.374C111.156 274.424 96.9356 260.254 96.9356 242.756C96.8852 225.258 111.055 211.038 128.553 211.038ZM359.509 274.374C357.996 274.374 356.534 274.223 355.071 274.021C357.441 267.062 358.753 259.7 358.803 252.186C358.803 252.135 358.803 232.166 358.803 211.038C359.005 211.038 359.206 210.987 359.408 210.987C376.906 210.937 391.127 225.107 391.127 242.605C391.177 260.153 377.007 274.374 359.509 274.374Z" fill="#030406"/>
<path d="M152.71 425.503L175.755 331.508C168.343 329.037 161.384 325.86 154.98 321.977C148.727 324.044 142.221 325.355 135.565 325.91V326.011C133.447 326.162 131.279 326.263 129.11 326.314H128.556C82.5664 326.314 45.0991 288.897 44.9983 242.857C44.9478 220.518 53.6213 199.54 69.3545 183.706C82.0117 170.999 98.0475 162.88 115.394 160.157V147.953H269.197L277.265 162.88L290.83 147.953H372.522L372.673 160.157C412.409 166.51 442.918 201.003 442.968 242.554C443.069 288.645 405.602 326.213 359.511 326.263C359.461 326.263 359.411 326.263 359.411 326.263C350.485 326.263 341.761 324.851 333.39 322.078C326.835 326.112 319.724 329.39 312.261 331.911L337.777 425.503H152.71ZM280.593 343.005H286.392L276.962 311.135L292.242 308.311C302.176 306.496 311.303 303.016 319.271 298.024C320.582 297.167 321.893 296.259 323.154 295.301L329.709 290.359L337.223 293.637C344.333 296.763 351.796 298.327 359.511 298.327C359.511 298.327 359.562 298.327 359.612 298.327C390.272 298.276 415.233 273.264 415.183 242.554C415.132 211.996 390.322 187.186 359.864 186.984L358.805 187.085H344.837V175.89H300.512L273.029 197.321L255.833 175.89H143.381V187.085H128.052C113.377 187.236 99.5603 193.035 89.1723 203.473C78.6835 214.013 72.9348 227.981 72.9348 242.857C72.9348 257.733 78.7843 271.701 89.3236 282.19C99.762 292.578 113.529 298.327 128.203 298.427H129.413H129.514C130.674 298.427 131.834 298.377 132.993 298.276V298.175C139.347 297.671 145.398 296.158 151.097 293.637L158.56 290.309L165.115 295.2C166.326 296.057 167.485 296.965 168.746 297.722C176.159 302.361 184.731 305.689 194.262 307.605C194.817 307.706 195.271 307.857 195.775 307.958L211.054 310.782L201.624 342.652H280.492L280.593 343.005Z" fill="#030406"/>
<path d="M359.562 326.869H359.411C355.729 326.869 351.947 326.616 347.913 326.062L284.678 317.388L305.403 257.027C305.958 255.363 306.26 253.649 306.26 251.985V159.703L356.536 158.594C357.646 158.543 358.805 158.493 359.965 158.543C406.055 158.795 443.523 196.414 443.624 242.555C443.674 265.045 434.95 286.224 419.066 302.109C403.181 318.044 382.103 326.818 359.562 326.869Z" fill="#030406"/>
<path d="M128.606 326.869H128.404C105.914 326.818 84.8352 318.044 68.9507 302.109C53.0662 286.174 44.3424 265.045 44.3928 242.555C44.4936 196.364 81.9609 158.796 128.051 158.493C129.211 158.493 130.371 158.493 131.48 158.544L181.756 159.653V252.136C181.756 253.649 182.058 255.313 182.613 257.027L203.339 317.389L140.103 326.062C136.069 326.617 132.337 326.869 128.606 326.869Z" fill="#030406"/>
<path d="M128.452 173.066C90.0271 173.116 58.8633 204.331 58.9641 242.807C59.065 281.282 90.2288 312.396 128.705 312.295C167.13 312.244 198.294 281.03 198.193 242.554C198.143 204.129 166.928 173.016 128.452 173.066ZM128.654 274.374C111.156 274.424 96.9356 260.254 96.9356 242.756C96.8852 225.258 111.055 211.037 128.553 211.037C146.052 210.987 160.272 225.157 160.272 242.655C160.322 260.153 146.152 274.374 128.654 274.374Z" fill="#FCBE26"/>
<path d="M359.308 173.066C320.883 173.116 289.719 204.331 289.82 242.807C289.92 281.282 321.084 312.396 359.56 312.295C397.985 312.244 429.149 281.03 429.048 242.554C428.948 204.079 397.784 173.016 359.308 173.066ZM359.51 274.374C342.012 274.424 327.791 260.254 327.791 242.756C327.741 225.258 341.911 211.037 359.409 211.037C376.907 210.987 391.127 225.157 391.127 242.655C391.178 260.153 377.008 274.374 359.51 274.374Z" fill="#EE7627"/>
<path d="M70.2613 242.806C70.2108 206.146 98.5004 176.092 134.455 173.318C132.589 173.167 130.723 173.066 128.807 173.066C90.3816 173.116 59.2177 204.331 59.3186 242.806C59.369 281.232 90.5833 312.396 129.059 312.295C130.874 312.295 132.69 312.194 134.455 312.043C98.6012 309.32 70.3621 279.416 70.2613 242.806Z" fill="white"/>
<path d="M417.751 242.806C417.802 206.146 389.512 176.092 353.558 173.318C355.423 173.167 357.289 173.066 359.205 173.066C397.631 173.116 428.795 204.331 428.694 242.806C428.593 281.282 397.429 312.396 358.953 312.295C357.138 312.295 355.323 312.194 353.558 312.043C389.411 309.32 417.701 279.416 417.751 242.806Z" fill="#FCBE26"/>
<path d="M322.852 413.653L294.612 321.674C307.623 319.304 318.162 314.715 326.533 309.521C346.35 297.116 358.503 275.231 358.655 251.833C358.655 251.732 358.655 251.631 358.655 251.53C358.655 249.665 358.604 247.748 358.503 245.883H358.655V161.922H295.671L275.248 177.806L262.49 161.922H129.363V245.933C129.262 247.799 129.212 249.665 129.212 251.581C129.212 251.682 129.212 251.783 129.212 251.883C129.313 275.281 141.466 297.116 161.334 309.572C169.705 314.816 180.194 319.355 193.254 321.725L167.688 413.653" fill="#FCBE26"/>
<path d="M181.051 309.521C161.233 297.116 149.08 275.231 148.929 251.833C148.929 251.732 148.929 251.631 148.929 251.53C148.929 249.665 149.08 161.922 149.08 161.922H129.363V245.933C129.262 247.799 129.212 249.665 129.212 251.581C129.212 251.682 129.212 251.783 129.212 251.883C129.313 275.281 141.466 297.116 161.334 309.572C169.705 314.816 180.194 319.355 193.254 321.725L167.688 413.653H189.069L213.022 321.674C199.911 319.304 189.422 314.766 181.051 309.521Z" fill="white"/>
<path d="M322.853 413.653L294.765 322.027C307.775 319.657 318.315 315.069 326.686 309.875C346.503 297.47 358.656 275.584 358.807 252.186C358.807 252.085 358.807 161.871 358.807 161.871H323.862C323.862 161.871 323.862 252.085 323.862 252.186C323.761 275.584 311.608 297.419 291.74 309.875C283.369 315.119 272.88 319.657 259.819 322.027L284.629 413.653H322.853Z" fill="#EE7627"/>
<path d="M326.636 250.219C325.678 268.07 311.306 282.694 293.455 283.904C272.578 285.316 255.181 268.827 255.181 248.253L315.542 222.384C322.803 229.292 327.19 239.226 326.636 250.219Z" fill="#070B08"/>
<path d="M244.033 276.896L233.04 295.957H255.026L244.033 276.896Z" fill="#070B08"/>
<path d="M197.088 283.955C216.833 283.955 232.84 267.948 232.84 248.202C232.84 228.457 216.833 212.45 197.088 212.45C177.342 212.45 161.335 228.457 161.335 248.202C161.335 267.948 177.342 283.955 197.088 283.955Z" fill="#070B08"/>
<path d="M168.393 110.284L150.037 27.9366L210.751 42.7118L243.428 8.87524L278.979 42.4092L337.676 28.8948L321.993 110.284H168.393Z" fill="#FCBE26"/>
<path d="M243.629 17.7503L277.062 49.368L329.607 37.2655L316.748 104.081H173.485L158.408 36.4587L212.768 49.6706L243.629 17.7503ZM243.226 0L234.553 8.976L208.683 35.7527L161.383 24.205L141.666 19.4144L146.104 39.1818L161.181 106.703L163.4 116.587H173.485H316.799H327.187L329.154 106.351L342.012 39.5348L345.694 20.5238L326.834 24.8605L280.895 35.4502L252.303 8.57259L243.226 0Z" fill="black"/>
<path d="M329.656 37.2146L316.797 103.98H296.576L308.88 42.0052L329.656 37.2146Z" fill="#EE7627"/>
</svg>
